<svg width="59" height="59" viewBox="0 0 59 59" fill="none" xmlns="http://www.w3.org/2000/svg">
<path d="M16.8278 43.7058L21.4525 47.189C22.5081 47.9807 23.1281 49.2206 23.1281 50.5402L23.1281 52.6347H6.37207V50.5402C6.37207 49.2206 6.99204 47.9807 8.04767 47.189L12.6723 43.7058" stroke="white" stroke-width="1.704" stroke-miterlimit="10" stroke-linecap="round"/>
<path d="M14.75 44.2057C12.4356 44.2057 10.561 42.3311 10.561 40.0167V37.9222C10.561 35.6077 12.4356 33.7332 14.75 33.7332C17.0645 33.7332 18.939 35.6077 18.939 37.9222V40.0167C18.939 42.3311 17.0645 44.2057 14.75 44.2057Z" stroke="white" stroke-width="1.704" stroke-miterlimit="10" stroke-linecap="round"/>
<path d="M31.5778 16.3298L36.2025 19.813C37.2581 20.6047 37.8781 21.8447 37.8781 23.1642V25.2587L21.1221 25.2587L21.1221 23.1642C21.1221 21.8447 21.742 20.6047 22.7977 19.813L27.4223 16.3298" stroke="white" stroke-width="1.704" stroke-miterlimit="10" stroke-linecap="round"/>
<path d="M29.5 16.8297C27.1856 16.8297 25.311 14.9551 25.311 12.6407V10.5462C25.311 8.23176 27.1856 6.35718 29.5 6.35718C31.8145 6.35718 33.689 8.23176 33.689 10.5462V12.6407C33.689 14.9551 31.8145 16.8297 29.5 16.8297Z" stroke="white" stroke-width="1.704" stroke-miterlimit="10" stroke-linecap="round"/>
<path d="M46.3278 43.7058L50.9525 47.189C52.0081 47.9807 52.6281 49.2206 52.6281 50.5402V52.6347H35.8721V50.5402C35.8721 49.2206 36.492 47.9807 37.5477 47.189L42.1723 43.7058" stroke="white" stroke-width="1.704" stroke-miterlimit="10" stroke-linecap="round"/>
<path d="M44.25 44.2057C41.9356 44.2057 40.061 42.3311 40.061 40.0167V37.9222C40.061 35.6077 41.9356 33.7332 44.25 33.7332C46.5645 33.7332 48.439 35.6077 48.439 37.9222V40.0167C48.439 42.3311 46.5645 44.2057 44.25 44.2057Z" stroke="white" stroke-width="1.704" stroke-miterlimit="10" stroke-linecap="round"/>
</svg>
