<svg width="24" height="24" viewBox="0 0 24 24" fill="none" xmlns="http://www.w3.org/2000/svg">
<path d="M21.6001 6.0602C20.8801 6.3602 20.1601 6.6002 19.3201 6.6602C20.1601 6.1802 20.7601 5.4002 21.0601 4.5002C20.2801 4.9802 19.4401 5.2802 18.5401 5.4602C17.8201 4.6802 16.8001 4.2002 15.7201 4.2002C13.5601 4.2002 11.7601 5.9402 11.7601 8.1602C11.7601 8.4602 11.8201 8.7602 11.8801 9.0602C8.58009 8.8802 5.70009 7.3202 3.72009 4.9202C3.36009 5.5202 3.18009 6.1802 3.18009 6.9002C3.18009 8.2802 3.90009 9.4802 4.92009 10.2002C4.26009 10.2002 3.66009 10.0202 3.12009 9.7202V9.7802C3.12009 11.7002 4.50009 13.2602 6.30009 13.6202C5.94009 13.6802 5.64009 13.7402 5.28009 13.7402C5.04009 13.7402 4.80009 13.7402 4.56009 13.6802C5.04009 15.2402 6.54009 16.3802 8.22009 16.4402C6.90009 17.5202 5.16009 18.1202 3.30009 18.1202C3.00009 18.1202 2.64009 18.1202 2.34009 18.0602C4.14009 19.1402 6.24009 19.8002 8.46009 19.8002C15.7201 19.8002 19.6801 13.8002 19.6801 8.5802C19.6801 8.4002 19.6801 8.2202 19.6801 8.1002C20.4001 7.5002 21.0601 6.8402 21.6001 6.0602Z" fill="#2ED2E8"/>
</svg>
